<?xml version="1.0" encoding="UTF-8" standalone="no"?>
<svg
   xmlns:dc="http://purl.org/dc/elements/1.1/"
   xmlns:cc="http://creativecommons.org/ns#"
   xmlns:rdf="http://www.w3.org/1999/02/22-rdf-syntax-ns#"
   xmlns:svg="http://www.w3.org/2000/svg"
   xmlns="http://www.w3.org/2000/svg"
   xmlns:sodipodi="http://sodipodi.sourceforge.net/DTD/sodipodi-0.dtd"
   xmlns:inkscape="http://www.inkscape.org/namespaces/inkscape"
   aria-hidden="true"
   focusable="false"
   viewBox="0 0 24 24"
   version="1.1"
   id="svg4487"
   sodipodi:docname="icon.svg"
   inkscape:version="0.92.0 r15299">
  <metadata
     id="metadata4493">
    <rdf:RDF>
      <cc:Work
         rdf:about="">
        <dc:format>image/svg+xml</dc:format>
        <dc:type
           rdf:resource="http://purl.org/dc/dcmitype/StillImage" />
      </cc:Work>
    </rdf:RDF>
  </metadata>
  <defs
     id="defs4491" />
  <sodipodi:namedview
     pagecolor="#ffffff"
     bordercolor="#666666"
     borderopacity="1"
     objecttolerance="10"
     gridtolerance="10"
     guidetolerance="10"
     inkscape:pageopacity="0"
     inkscape:pageshadow="2"
     inkscape:window-width="1920"
     inkscape:window-height="1017"
     id="namedview4489"
     showgrid="false"
     inkscape:zoom="34.75"
     inkscape:cx="12"
     inkscape:cy="12"
     inkscape:window-x="1272"
     inkscape:window-y="-8"
     inkscape:window-maximized="1"
     inkscape:current-layer="svg4487" />
  <path
     d="M9.33 11.5h2.17A4.5 4.5 0 0 1 16 16H8.999L9 17h8v-1a5.578 5.578 0 0 0-.886-3H19a5 5 0 0 1 4.516 2.851C21.151 18.972 17.322 21 13 21c-2.761 0-5.1-.59-7-1.625v-9.304A6.967 6.967 0 0 1 9.33 11.5zM5 19a1 1 0 0 1-1 1H2a1 1 0 0 1-1-1v-9a1 1 0 0 1 1-1h2a1 1 0 0 1 1 1v9zM18 5a3 3 0 1 1 0 6a3 3 0 0 1 0-6zm-7-3a3 3 0 1 1 0 6a3 3 0 0 1 0-6z"
     id="path4485"
     style="fill:#ff6600" />
</svg>
